<svg id="visual" viewBox="0 0 900 600" width="900" height="600" xmlns="http://www.w3.org/2000/svg" xmlns:xlink="http://www.w3.org/1999/xlink" version="1.1"><rect x="0" y="0" width="900" height="600" fill="#e6e6e6"></rect><path d="M0 499L9.3 502.8C18.7 506.7 37.3 514.3 56.2 518.7C75 523 94 524 112.8 522.2C131.7 520.3 150.3 515.7 169 515.7C187.7 515.7 206.3 520.3 225 517.2C243.7 514 262.3 503 281.2 500.2C300 497.3 319 502.7 337.8 503.2C356.7 503.7 375.3 499.3 394 498C412.7 496.7 431.3 498.3 450 499.3C468.7 500.3 487.3 500.7 506.2 504C525 507.3 544 513.7 562.8 514.7C581.7 515.7 600.3 511.3 619 508.3C637.7 505.3 656.3 503.7 675 505.2C693.7 506.7 712.3 511.3 731.2 512.2C750 513 769 510 787.8 508.5C806.7 507 825.3 507 844 510.2C862.7 513.3 881.3 519.7 890.7 522.8L900 526L900 601L890.7 601C881.3 601 862.7 601 844 601C825.3 601 806.7 601 787.8 601C769 601 750 601 731.2 601C712.3 601 693.7 601 675 601C656.3 601 637.7 601 619 601C600.3 601 581.7 601 562.8 601C544 601 525 601 506.2 601C487.3 601 468.7 601 450 601C431.3 601 412.7 601 394 601C375.3 601 356.7 601 337.8 601C319 601 300 601 281.2 601C262.3 601 243.7 601 225 601C206.3 601 187.7 601 169 601C150.3 601 131.7 601 112.8 601C94 601 75 601 56.2 601C37.3 601 18.7 601 9.3 601L0 601Z" fill="#ffffff" stroke-linecap="round" stroke-linejoin="miter"></path></svg>