<svg id="visual" viewBox="0 0 900 600" width="900" height="600" xmlns="http://www.w3.org/2000/svg" xmlns:xlink="http://www.w3.org/1999/xlink" version="1.1"><rect x="0" y="0" width="900" height="600" fill="#e6e6e6"></rect><path d="M0 332L9.3 330.8C18.7 329.7 37.3 327.3 56.2 325C75 322.7 94 320.3 112.8 323.3C131.7 326.3 150.3 334.7 169 332C187.7 329.3 206.3 315.7 225 315C243.7 314.3 262.3 326.7 281.2 338.2C300 349.7 319 360.3 337.8 351C356.7 341.7 375.3 312.3 394 312.2C412.7 312 431.3 341 450 357.2C468.7 373.3 487.3 376.7 506.2 375C525 373.3 544 366.7 562.8 357.8C581.7 349 600.3 338 619 331.7C637.7 325.3 656.3 323.7 675 325C693.7 326.3 712.3 330.7 731.2 329.7C750 328.7 769 322.3 787.8 324.7C806.7 327 825.3 338 844 346.5C862.7 355 881.3 361 890.7 364L900 367L900 601L890.7 601C881.3 601 862.7 601 844 601C825.3 601 806.7 601 787.8 601C769 601 750 601 731.2 601C712.3 601 693.7 601 675 601C656.3 601 637.7 601 619 601C600.3 601 581.7 601 562.8 601C544 601 525 601 506.2 601C487.3 601 468.7 601 450 601C431.3 601 412.7 601 394 601C375.3 601 356.7 601 337.8 601C319 601 300 601 281.2 601C262.3 601 243.7 601 225 601C206.3 601 187.7 601 169 601C150.3 601 131.7 601 112.8 601C94 601 75 601 56.2 601C37.3 601 18.7 601 9.3 601L0 601Z" fill="#ffffff" stroke-linecap="round" stroke-linejoin="miter"></path></svg>